<?xml version="1.0" encoding="UTF-8" standalone="no"?>
<svg
   width="128px"
   height="128px"
   version="1.1"
   viewBox="0 0 128 128"
   xmlns:inkscape="http://www.inkscape.org/namespaces/inkscape"
   xmlns:sodipodi="http://sodipodi.sourceforge.net/DTD/sodipodi-0.dtd"
   xmlns="http://www.w3.org/2000/svg"
   xmlns:svg="http://www.w3.org/2000/svg">
  <path
     d="M 13.000663,86.41719 5.520983,58.506652 c -0.36818,-1.376913 0.44888,-2.789117 1.82581,-3.157313 L 57.191956,41.993383 c 1.230684,-0.327835 2.309987,-0.812021 3.248118,-1.447496 0.953247,-0.655673 1.800523,-1.482788 2.547028,-2.491505 L 86.338781,6.5221427 c 1.220573,-1.64924 2.809236,-2.8597 4.599744,-3.55574 1.795577,-0.7010601 3.777605,-0.8927201 5.789989,-0.5094 2.022486,0.38331 3.802896,1.29115 5.215086,2.60254 1.41222,1.31139 2.45116,3.01604 2.98076,4.9981793 l 18.39363,68.637975 c 0.52958,1.977086 0.48417,3.969343 -0.0858,5.815271 -0.56489,1.840867 -1.65432,3.515393 -3.20273,4.851956 -1.55842,1.346679 -3.37917,2.17883 -5.28064,2.466328 -1.89131,0.287487 -3.86839,0.03026 -5.75468,-0.7868 L 72.997804,75.407602 c -1.149991,-0.499312 -2.289754,-0.791847 -3.444806,-0.877578 -1.149991,-0.08575 -2.325055,0.04035 -3.550689,0.363137 l -49.987186,13.385006 -0.19165,0.03026 c -1.27093,0.161395 -2.48645,-0.630452 -2.82441,-1.891332 z m 13.67875,28.13327 c 0,3.08166 -1.25587,5.88585 -3.27836,7.90834 -2.02249,2.02251 -4.82162,3.27836 -7.90835,3.27836 -3.08167,0 -5.88585,-1.25585 -7.90834,-3.27836 l -0.14122,-0.15635 c -1.94179,-2.01237 -3.13203,-4.74597 -3.13203,-7.75199 0,-3.04628 4.35766,-11.53436 7.12655,-16.931406 0.71115,-1.392079 1.31139,-2.562085 1.72994,-3.444816 0.61532,-1.286097 2.15365,-1.830858 3.43975,-1.22057 0.55479,0.267313 0.97342,0.706106 1.22057,1.22057 0.41862,0.882639 1.01882,2.052737 1.72994,3.434694 l 0.0706,0.146272 c 2.77395,5.396606 7.05597,13.774506 7.05597,16.800126 z M 17.157113,81.993897 106.4902,35.819925 99.943604,11.383682 c -0.272349,-1.0289 -0.796882,-1.9014493 -1.508076,-2.5571393 -0.706095,-0.65567 -1.613948,-1.11459 -2.6529,-1.31139 -1.044013,-0.1967 -2.062837,-0.10592 -2.965572,0.24714 -0.897769,0.35304 -1.709813,0.97341 -2.340227,1.8258 L 67.125159,41.120334 c -1.099528,1.487844 -2.355402,2.70842 -3.782667,3.676787 -1.452551,0.983497 -3.051326,1.70476 -4.816664,2.17883 l -47.348925,12.689934 5.98172,22.332735 z"
     id="icon"
     fill="currentColor"
     style="stroke-width:0.107596" />
</svg>
