<?xml version="1.0" encoding="utf-8"?>
<!-- Generator: Adobe Illustrator 28.5.0, SVG Export Plug-In . SVG Version: 9.03 Build 54727)  -->
<svg version="1.1" id="Layer_1" xmlns="http://www.w3.org/2000/svg" xmlns:xlink="http://www.w3.org/1999/xlink" x="0px" y="0px"
	 viewBox="0 0 128 128" style="enable-background:new 0 0 128 128;" xml:space="preserve">
<g id="icon" fill="currentColor">
	<path d="M79.4,17c2.5,0,4.6,2.1,4.6,4.6v68.8c0,2.5-2.1,4.6-4.6,4.6H38.6c-2.5,0-4.6-2.1-4.6-4.6V21.6c0-2.5,2.1-4.6,4.6-4.6H79.4
		 M79.4,13H38.6c-4.7,0-8.6,3.8-8.6,8.6v68.8c0,4.7,3.8,8.6,8.6,8.6h40.8c4.7,0,8.6-3.8,8.6-8.6V21.6C88,16.8,84.2,13,79.4,13
		L79.4,13z"/>
	<path d="M115.4,61c2.5,0,4.6,2.1,4.6,4.6v40.8c0,2.5-2.1,4.6-4.6,4.6H46.6c-2.5,0-4.6-2.1-4.6-4.6V65.6c0-2.5,2.1-4.6,4.6-4.6
		H115.4 M115.4,57H46.6c-4.7,0-8.6,3.8-8.6,8.6v40.8c0,4.7,3.8,8.6,8.6,8.6h68.8c4.7,0,8.6-3.8,8.6-8.6V65.6
		C124,60.8,120.2,57,115.4,57L115.4,57z"/>
	<path d="M107.4,25c2.5,0,4.6,2.1,4.6,4.6v68.8c0,2.5-2.1,4.6-4.6,4.6H12.6c-2.5,0-4.6-2.1-4.6-4.6V29.6c0-2.5,2.1-4.6,4.6-4.6
		H107.4 M107.4,21H12.6C7.8,21,4,24.8,4,29.6v68.8c0,4.7,3.8,8.6,8.6,8.6h94.8c4.7,0,8.6-3.8,8.6-8.6V29.6
		C116,24.8,112.2,21,107.4,21L107.4,21z"/>
</g>
</svg>
